<?xml version="1.0" standalone="no"?>
<!DOCTYPE svg PUBLIC "-//W3C//DTD SVG 20010904//EN"
 "http://www.w3.org/TR/2001/REC-SVG-20010904/DTD/svg10.dtd">
<svg version="1.0" xmlns="http://www.w3.org/2000/svg"
 width="1000.000000pt" height="1000.000000pt" viewBox="0 0 1000.000000 1000.000000"
 preserveAspectRatio="xMidYMid meet">
<metadata>
Created by potrace 1.11, written by Peter Selinger 2001-2013
</metadata>
<g transform="translate(0.000000,1000.000000) scale(0.100000,-0.100000)"
fill="#000000" stroke="none">
<path d="M1502 9988 c-7 -7 -12 -9 -12 -6 0 3 -21 1 -47 -4 -27 -5 -60 -11
-74 -14 -15 -2 -73 -20 -130 -39 -57 -20 -116 -39 -131 -42 -16 -3 -28 -9 -28
-14 0 -5 -6 -9 -12 -9 -15 0 -229 -106 -273 -135 -16 -11 -43 -32 -60 -47 -16
-15 -33 -28 -36 -28 -3 0 -17 -9 -30 -21 -91 -78 -137 -120 -173 -158 -23 -24
-55 -58 -71 -75 -17 -17 -52 -59 -78 -93 -26 -34 -54 -69 -62 -77 -8 -8 -27
-42 -41 -75 -15 -34 -31 -61 -35 -61 -5 0 -9 -11 -9 -25 0 -14 -4 -25 -10 -25
-5 0 -10 -9 -10 -20 0 -11 -4 -20 -10 -20 -5 0 -10 -9 -10 -20 0 -11 -4 -20
-9 -20 -5 0 -11 -10 -14 -22 -8 -35 -57 -170 -65 -182 -4 -6 -9 -24 -11 -41
-2 -16 -6 -34 -11 -40 -7 -9 -14 -41 -27 -125 -3 -19 -9 -36 -14 -38 -13 -5
-12 -7007 1 -7030 5 -9 16 -48 24 -87 18 -86 44 -184 53 -199 4 -6 8 -18 10
-26 1 -8 6 -23 11 -35 6 -11 20 -42 32 -70 37 -85 64 -139 81 -165 9 -14 20
-36 24 -50 7 -24 57 -103 80 -126 5 -6 21 -26 35 -44 27 -36 102 -120 136
-154 74 -73 144 -135 174 -156 19 -13 44 -33 55 -43 36 -34 101 -76 129 -83
14 -3 28 -10 31 -14 8 -13 172 -90 250 -117 39 -14 84 -30 100 -38 38 -16 207
-55 239 -55 14 0 28 -5 31 -10 8 -13 6995 -14 6995 -1 0 4 19 11 43 14 89 13
123 19 139 28 9 5 28 9 42 9 14 0 26 5 26 10 0 6 11 10 24 10 14 0 28 5 31 10
4 6 10 8 14 5 5 -2 17 2 27 10 10 8 27 15 36 15 9 0 52 18 95 40 43 22 82 40
86 40 5 0 21 8 35 19 15 10 38 22 52 26 27 8 93 52 125 82 11 11 34 28 50 39
61 40 272 248 306 302 9 15 26 37 38 49 11 12 21 26 21 32 0 5 6 11 13 14 7 2
23 26 35 53 24 50 30 62 63 121 10 18 19 40 19 48 0 8 5 15 10 15 6 0 10 5 10
10 0 6 9 32 21 58 32 71 37 84 50 127 7 22 17 44 21 50 4 5 8 21 8 35 0 15 3
30 7 34 4 3 8 12 9 19 1 7 5 28 9 47 4 19 9 50 12 67 3 18 9 33 14 33 13 0 12
7023 -1 7036 -5 5 -16 44 -24 86 -19 100 -73 261 -125 371 -23 48 -41 90 -41
93 0 3 -8 18 -19 32 -10 15 -21 38 -24 52 -10 38 -158 230 -247 320 -79 79
-169 160 -177 160 -4 0 -30 21 -58 45 -55 49 -276 163 -415 215 -47 17 -94 35
-105 40 -11 5 -31 12 -45 14 -14 3 -43 10 -65 15 -74 18 -100 23 -122 22 -12
0 -25 4 -28 9 -10 16 -6977 14 -6993 -2z"/>
</g>
</svg>
